<svg width="209" height="164" viewBox="0 0 209 164" fill="none" xmlns="http://www.w3.org/2000/svg">
    <path d="M123.295 111.192C135.9 105.877 145.851 98.6438 153.143 89.4881C160.434 80.3344 164.079 70.3659 164.079 59.5822C164.079 48.7981 160.434 38.8289 153.14 29.6747C145.849 20.5206 135.899 13.2863 123.292 7.97087C110.686 2.65628 96.9739 0 82.155 0C67.3374 0 53.6256 2.65791 41.018 7.97087C28.4116 13.2859 18.4618 20.5202 11.1704 29.6747C3.87817 38.8305 0.231445 48.7981 0.231445 59.5826C0.231445 68.8138 2.98962 77.5065 8.49741 85.6522C14.0048 93.7963 21.5693 100.663 31.1885 106.248C30.4132 108.112 29.618 109.816 28.8032 111.37C27.9881 112.921 27.0192 114.414 25.8934 115.85C24.7685 117.287 23.8967 118.411 23.2755 119.223C22.6547 120.037 21.6463 121.184 20.2491 122.655C18.8523 124.13 17.9597 125.099 17.5725 125.564C17.5725 125.486 17.4172 125.661 17.1066 126.088C16.7956 126.515 16.6211 126.708 16.5828 126.671C16.5437 126.63 16.3884 126.824 16.1169 127.25C15.8455 127.677 15.7094 127.891 15.7094 127.891L15.4179 128.471C15.303 128.705 15.2239 128.934 15.1856 129.168C15.1465 129.399 15.1269 129.653 15.1269 129.924C15.1269 130.195 15.1652 130.446 15.2443 130.68C15.3996 131.687 15.8455 132.5 16.5824 133.124C17.3189 133.743 18.1133 134.053 18.9676 134.053H19.3169C23.1952 133.51 26.5317 132.889 29.3242 132.19C41.2715 129.089 52.056 124.121 61.6756 117.295C68.6572 118.536 75.4844 119.157 82.1558 119.157C96.9747 119.162 110.688 116.507 123.295 111.192Z" fill="#F7F8F9"/>
    <path d="M200.503 115.497C206.013 107.391 208.766 98.6853 208.766 89.3747C208.766 79.8313 205.854 70.9043 200.037 62.6041C194.218 54.3047 186.304 47.3988 176.297 41.8906C178.08 47.7086 178.972 53.6044 178.972 59.5793C178.972 69.9741 176.376 79.8269 171.175 89.1375C165.978 98.4453 158.53 106.668 148.833 113.807C139.833 120.323 129.592 125.326 118.11 128.818C106.63 132.308 94.6433 134.055 82.1526 134.055C79.8261 134.055 76.4121 133.901 71.9131 133.591C87.5059 143.829 105.815 148.951 126.839 148.951C133.511 148.951 140.338 148.329 147.32 147.088C156.94 153.917 167.725 158.88 179.671 161.985C182.464 162.685 185.8 163.305 189.679 163.847C190.61 163.925 191.465 163.653 192.24 163.032C193.016 162.412 193.521 161.561 193.752 160.476C193.716 160.01 193.752 159.754 193.869 159.717C193.984 159.681 193.964 159.427 193.81 158.963C193.657 158.496 193.579 158.263 193.579 158.263L193.289 157.683C193.208 157.53 193.077 157.315 192.882 157.044C192.688 156.775 192.533 156.579 192.416 156.463C192.302 156.347 192.128 156.152 191.894 155.882C191.662 155.613 191.506 155.437 191.428 155.359C191.04 154.894 190.149 153.924 188.753 152.45C187.355 150.977 186.348 149.833 185.727 149.018C185.107 148.204 184.234 147.08 183.109 145.643C181.985 144.209 181.014 142.715 180.199 141.163C179.385 139.612 178.59 137.904 177.814 136.044C187.434 130.453 194.997 123.607 200.503 115.497Z" fill="#F7F8F9"/>
</svg>
